<svg width="21" height="16" viewBox="0 0 21 16" fill="none" xmlns="http://www.w3.org/2000/svg">
<path fill-rule="evenodd" clip-rule="evenodd" d="M11.166 0C11.4109 3.23106e-05 11.6474 0.089956 11.8304 0.252715C12.0134 0.415474 12.1304 0.639749 12.159 0.883L12.166 1C12.1663 1.25488 12.2639 1.50003 12.4389 1.68537C12.6138 1.8707 12.853 1.98223 13.1074 1.99717C13.3619 2.01211 13.6124 1.92933 13.8078 1.76574C14.0033 1.60214 14.1289 1.3701 14.159 1.117L14.166 1C14.166 0.734784 14.2714 0.48043 14.4589 0.292893C14.6464 0.105357 14.9008 0 15.166 0H17.166C17.9617 0 18.7247 0.316071 19.2873 0.87868C19.8499 1.44129 20.166 2.20435 20.166 3V13C20.166 13.7956 19.8499 14.5587 19.2873 15.1213C18.7247 15.6839 17.9617 16 17.166 16H15.166C14.9211 16 14.6847 15.91 14.5016 15.7473C14.3186 15.5845 14.2017 15.3603 14.173 15.117L14.166 15C14.1657 14.7451 14.0681 14.5 13.8932 14.3146C13.7182 14.1293 13.4791 14.0178 13.2246 14.0028C12.9702 13.9879 12.7196 14.0707 12.5242 14.2343C12.3287 14.3979 12.2031 14.6299 12.173 14.883L12.166 15C12.166 15.2652 12.0607 15.5196 11.8731 15.7071C11.6856 15.8946 11.4312 16 11.166 16H3.16602C2.37037 16 1.6073 15.6839 1.0447 15.1213C0.482086 14.5587 0.166016 13.7956 0.166016 13V3C0.166016 2.20435 0.482086 1.44129 1.0447 0.87868C1.6073 0.316071 2.37037 0 3.16602 0H11.166ZM13.166 9C12.9008 9 12.6464 9.10536 12.4589 9.29289C12.2714 9.48043 12.166 9.73478 12.166 10V11C12.166 11.2652 12.2714 11.5196 12.4589 11.7071C12.6464 11.8946 12.9008 12 13.166 12C13.4312 12 13.6856 11.8946 13.8731 11.7071C14.0607 11.5196 14.166 11.2652 14.166 11V10C14.166 9.73478 14.0607 9.48043 13.8731 9.29289C13.6856 9.10536 13.4312 9 13.166 9ZM13.166 4C12.9211 4.00003 12.6847 4.08996 12.5016 4.25272C12.3186 4.41547 12.2017 4.63975 12.173 4.883L12.166 5V6C12.1663 6.25488 12.2639 6.50003 12.4389 6.68537C12.6138 6.8707 12.853 6.98224 13.1074 6.99717C13.3619 7.01211 13.6124 6.92933 13.8078 6.76574C14.0033 6.60215 14.1289 6.3701 14.159 6.117L14.166 6V5C14.166 4.73478 14.0607 4.48043 13.8731 4.29289C13.6856 4.10536 13.4312 4 13.166 4Z" fill="#878B97"/>
</svg>
