<svg width="19" height="19" viewBox="0 0 19 19" fill="none" xmlns="http://www.w3.org/2000/svg">
<path d="M1.58252 7.19274H17.426" stroke="#636F73" stroke-width="1.5" stroke-linecap="round" stroke-linejoin="round"/>
<path d="M13.4486 10.6644H13.4569" stroke="#636F73" stroke-width="2" stroke-linecap="round" stroke-linejoin="round"/>
<path d="M9.5043 10.6644H9.51253" stroke="#636F73" stroke-width="2" stroke-linecap="round" stroke-linejoin="round"/>
<path d="M5.55127 10.6641H5.5595" stroke="#636F73" stroke-width="2" stroke-linecap="round" stroke-linejoin="round"/>
<path d="M13.4486 14.1195H13.4569" stroke="#636F73" stroke-width="2" stroke-linecap="round" stroke-linejoin="round"/>
<path d="M9.5043 14.1195H9.51253" stroke="#636F73" stroke-width="2" stroke-linecap="round" stroke-linejoin="round"/>
<path d="M5.55166 14.1195H5.55989" stroke="#636F73" stroke-width="2" stroke-linecap="round" stroke-linejoin="round"/>
<path d="M13.0944 0.611328V3.53647" stroke="#636F73" stroke-width="1.2" stroke-linecap="round" stroke-linejoin="round"/>
<path d="M5.91369 0.611328V3.53647" stroke="#636F73" stroke-width="1.2" stroke-linecap="round" stroke-linejoin="round"/>
<path fill-rule="evenodd" clip-rule="evenodd" d="M13.2673 2.01465L5.74086 2.01465C3.13046 2.01465 1.5 3.46881 1.5 6.14178L1.5 14.1859C1.5 16.9009 3.13046 18.3887 5.74086 18.3887H13.2591C15.8777 18.3887 17.5 16.9261 17.5 14.2532V6.14178C17.5082 3.46881 15.886 2.01465 13.2673 2.01465Z" stroke="#636F73" stroke-width="1.2" stroke-linecap="round" stroke-linejoin="round"/>
</svg>
