<svg width="21" height="21" viewBox="0 0 21 21" fill="none" xmlns="http://www.w3.org/2000/svg">
<path d="M9 4.5H12C12 4.10218 11.842 3.72064 11.5607 3.43934C11.2794 3.15804 10.8978 3 10.5 3C10.1022 3 9.72064 3.15804 9.43934 3.43934C9.15804 3.72064 9 4.10218 9 4.5ZM8 4.5C8 3.83696 8.26339 3.20107 8.73223 2.73223C9.20107 2.26339 9.83696 2 10.5 2C11.163 2 11.7989 2.26339 12.2678 2.73223C12.7366 3.20107 13 3.83696 13 4.5H18C18.1326 4.5 18.2598 4.55268 18.3536 4.64645C18.4473 4.74021 18.5 4.86739 18.5 5C18.5 5.13261 18.4473 5.25979 18.3536 5.35355C18.2598 5.44732 18.1326 5.5 18 5.5H16.946L15.752 15.844C15.6676 16.5752 15.3173 17.2498 14.7679 17.7396C14.2184 18.2293 13.508 18.4999 12.772 18.5H8.228C7.49195 18.4999 6.78161 18.2293 6.23214 17.7396C5.68266 17.2498 5.3324 16.5752 5.248 15.844L4.054 5.5H3C2.86739 5.5 2.74021 5.44732 2.64645 5.35355C2.55268 5.25979 2.5 5.13261 2.5 5C2.5 4.86739 2.55268 4.74021 2.64645 4.64645C2.74021 4.55268 2.86739 4.5 3 4.5H8ZM6.241 15.73C6.29743 16.2174 6.53105 16.667 6.89742 16.9934C7.26379 17.3198 7.73735 17.5001 8.228 17.5H12.772C13.2627 17.5001 13.7362 17.3198 14.1026 16.9934C14.469 16.667 14.7026 16.2174 14.759 15.73L15.939 5.5H5.061L6.241 15.73ZM9 8C9.13261 8 9.25979 8.05268 9.35355 8.14645C9.44732 8.24021 9.5 8.36739 9.5 8.5V14.5C9.5 14.6326 9.44732 14.7598 9.35355 14.8536C9.25979 14.9473 9.13261 15 9 15C8.86739 15 8.74021 14.9473 8.64645 14.8536C8.55268 14.7598 8.5 14.6326 8.5 14.5V8.5C8.5 8.36739 8.55268 8.24021 8.64645 8.14645C8.74021 8.05268 8.86739 8 9 8ZM12.5 8.5C12.5 8.36739 12.4473 8.24021 12.3536 8.14645C12.2598 8.05268 12.1326 8 12 8C11.8674 8 11.7402 8.05268 11.6464 8.14645C11.5527 8.24021 11.5 8.36739 11.5 8.5V14.5C11.5 14.6326 11.5527 14.7598 11.6464 14.8536C11.7402 14.9473 11.8674 15 12 15C12.1326 15 12.2598 14.9473 12.3536 14.8536C12.4473 14.7598 12.5 14.6326 12.5 14.5V8.5Z" fill="#5856D6"/>
</svg>
