<svg width="21" height="21" viewBox="0 0 21 21" fill="none" xmlns="http://www.w3.org/2000/svg">
<path fill-rule="evenodd" clip-rule="evenodd" d="M4.79367 2.96556C2.12685 4.90311 0.793443 5.87189 0.269737 7.30291C0.227726 7.41771 0.189938 7.534 0.156451 7.65157C-0.260994 9.11711 0.248322 10.6846 1.26696 13.8197C2.28559 16.9547 2.7949 18.5222 3.99405 19.4625C4.09025 19.5379 4.18918 19.6098 4.29064 19.678C5.55546 20.5279 7.20364 20.5279 10.5 20.5279C13.7964 20.5279 15.4446 20.5279 16.7094 19.678C16.8108 19.6098 16.9098 19.5379 17.006 19.4625C18.2051 18.5222 18.7144 16.9547 19.7331 13.8197C20.7517 10.6846 21.261 9.11711 20.8436 7.65157C20.8101 7.534 20.7723 7.41771 20.7303 7.30291C20.2066 5.87189 18.8732 4.90312 16.2064 2.96557C13.5395 1.02801 12.2061 0.0592252 10.6833 0.00336104C10.5611 -0.00112035 10.4389 -0.00112035 10.3167 0.00336104C8.79389 0.0592251 7.46048 1.02801 4.79367 2.96556ZM8.5 15.0697C8.08579 15.0697 7.75 15.4054 7.75 15.8197C7.75 16.2339 8.08579 16.5697 8.5 16.5697H12.5C12.9142 16.5697 13.25 16.2339 13.25 15.8197C13.25 15.4054 12.9142 15.0697 12.5 15.0697H8.5Z" fill="#5856D6"/>
</svg>
