<svg width="21" height="20" viewBox="0 0 21 20" fill="none" xmlns="http://www.w3.org/2000/svg">
<g clip-path="url(#clip0_1969_7886)">
<path d="M10.3164 0.0585952C10.2696 0.0898452 10.1016 0.390626 9.93752 0.722657C9.77737 1.05469 9.62112 1.32813 9.59377 1.32813C9.56643 1.32813 9.26174 1.37109 8.9219 1.42188C8.34768 1.50391 8.29299 1.51953 8.20705 1.61719C8.02346 1.83203 8.09377 1.96484 8.6758 2.50781L9.12502 2.92578L9.01174 3.5625C8.94924 3.91406 8.89846 4.23047 8.89846 4.26563C8.89846 4.38281 9.08987 4.57031 9.21487 4.57031C9.28127 4.57031 9.56643 4.44531 9.91408 4.26172L10.5 3.94922L11.086 4.26172C11.4063 4.42969 11.7149 4.57031 11.7735 4.57031C11.8906 4.57031 12.1016 4.37891 12.1016 4.26953C12.1016 4.23047 12.0508 3.91406 11.9883 3.5625L11.875 2.92578L12.3242 2.50781C12.918 1.95703 12.9883 1.81641 12.7774 1.60547C12.6758 1.51172 12.6094 1.49219 12.0078 1.40625L11.3477 1.3125L11.0625 0.726564C10.9024 0.402345 10.7383 0.10547 10.6914 0.0664077C10.5899 -0.0156236 10.4297 -0.0195298 10.3164 0.0585952Z" fill="#5856D6"/>
<path d="M6.15227 2.42543C6.11712 2.44496 6.05071 2.53481 6.00774 2.61684C5.94134 2.74965 5.90618 2.77699 5.76555 2.80043C5.42571 2.85121 5.31634 3.14027 5.53899 3.39809C5.63665 3.51527 5.65227 3.56996 5.65618 3.75356C5.65618 3.92934 5.6718 3.98793 5.74602 4.05434C5.8554 4.1559 6.03118 4.16371 6.21477 4.07777C6.33587 4.01918 6.3554 4.01918 6.46868 4.07777C6.64837 4.17152 6.81634 4.1559 6.93352 4.03871C7.02337 3.94887 7.03118 3.91762 7.01165 3.74184C6.98821 3.55434 6.99602 3.5309 7.12102 3.39027C7.20305 3.30043 7.25774 3.20277 7.25774 3.14027C7.25774 2.99574 7.07024 2.82777 6.87884 2.79262C6.74993 2.77309 6.70696 2.74574 6.6718 2.65199C6.57805 2.42934 6.33196 2.31996 6.15227 2.42543Z" fill="#5856D6"/>
<path d="M14.4763 2.46059C14.4216 2.49965 14.3552 2.5895 14.3278 2.652C14.2888 2.74965 14.2536 2.77309 14.1091 2.79653C13.9841 2.81215 13.9099 2.85512 13.8396 2.93715C13.7067 3.0934 13.7146 3.2145 13.8786 3.39028C14.0036 3.5309 14.0114 3.55434 13.988 3.74184C13.9685 3.91762 13.9763 3.94887 14.0661 4.03872C14.1833 4.1559 14.3396 4.17153 14.5349 4.07778C14.656 4.01918 14.6755 4.01918 14.7888 4.07778C14.9685 4.17153 15.156 4.15981 15.2614 4.04653C15.3317 3.97231 15.3474 3.91372 15.3396 3.75747C15.3317 3.5895 15.3474 3.54653 15.4528 3.41371C15.6833 3.13637 15.5817 2.85512 15.2341 2.80043C15.0935 2.777 15.0583 2.74965 14.9919 2.61684C14.8669 2.37465 14.6638 2.31215 14.4763 2.46059Z" fill="#5856D6"/>
<path d="M3.19922 4.13675C3.15625 4.17972 3.09375 4.26566 3.0625 4.32816C3.01563 4.4141 2.96875 4.44925 2.85156 4.46878C2.61719 4.50394 2.51172 4.60941 2.51172 4.80082C2.51172 4.92582 2.53906 4.98441 2.63672 5.08597C2.75 5.20316 2.75781 5.2305 2.73828 5.418C2.71875 5.59769 2.72656 5.62894 2.81641 5.71878C2.9375 5.83988 3.08984 5.8516 3.29297 5.75394C3.42188 5.69144 3.4375 5.69144 3.56641 5.75394C3.76172 5.84769 3.88672 5.83597 4 5.72269C4.08594 5.63675 4.09766 5.59378 4.08594 5.4141C4.07422 5.2266 4.08594 5.19535 4.20313 5.06253C4.42969 4.80472 4.32422 4.52347 3.97656 4.46878C3.83984 4.44535 3.80469 4.418 3.73828 4.293C3.69922 4.21097 3.62891 4.12503 3.58984 4.1016C3.46875 4.0391 3.28125 4.05472 3.19922 4.13675Z" fill="#5856D6"/>
<path d="M17.4023 4.1055C17.3671 4.12503 17.3007 4.21097 17.2577 4.293C17.1913 4.42582 17.1601 4.44535 17.0077 4.46878C16.6718 4.51957 16.5702 4.80472 16.7968 5.05863C16.9062 5.18753 16.9179 5.22269 16.9101 5.42972C16.9023 5.63285 16.9101 5.6641 17.0077 5.73832C17.1327 5.83597 17.2499 5.84378 17.4335 5.75394C17.5624 5.69144 17.578 5.69144 17.707 5.75394C17.9101 5.8516 18.0624 5.83988 18.1835 5.71878C18.2734 5.62894 18.2812 5.59769 18.2616 5.418C18.2421 5.2305 18.2499 5.20316 18.3632 5.08597C18.4609 4.98441 18.4882 4.92582 18.4882 4.80082C18.4882 4.60941 18.3827 4.50394 18.1484 4.46878C18.0312 4.44925 17.9843 4.4141 17.9374 4.32816C17.8085 4.08207 17.5976 3.99222 17.4023 4.1055Z" fill="#5856D6"/>
<path d="M7.38672 5.9375C6.94922 6.0039 6.55859 6.30078 6.36719 6.71094L6.26172 6.93359L6.25 13.3516L6.24219 19.7695L6.35547 19.8867L6.46875 20H7.42969C8.44531 20 8.54297 19.9844 8.62109 19.8164C8.65234 19.7539 8.66406 19.1172 8.66406 17.7695C8.66406 15.7656 8.66797 15.7109 8.81641 15.5977C8.90625 15.5273 12.0938 15.5273 12.1836 15.5977C12.332 15.7109 12.3359 15.7656 12.3359 17.7695C12.3359 19.1172 12.3477 19.7539 12.3789 19.8164C12.457 19.9844 12.5547 20 13.5703 20H14.5312L14.6445 19.8867L14.7578 19.7695L14.75 13.3516L14.7383 6.93359L14.6328 6.70703C14.4922 6.41406 14.1953 6.125 13.9102 6.00781L13.6836 5.91797L10.6367 5.91406C8.96094 5.91015 7.5 5.92187 7.38672 5.9375ZM12.6016 9.35937C12.7383 9.45312 12.7734 9.58984 12.7109 9.74609C12.6797 9.81641 12.6211 9.89453 12.5781 9.91797C12.5234 9.94922 11.8516 9.96094 10.4844 9.96094H8.47266L8.37109 9.87109C8.21875 9.74219 8.21875 9.51562 8.36719 9.39062L8.47266 9.29687H10.4922C12.2812 9.29687 12.5234 9.30469 12.6016 9.35937ZM12.0469 12.5937C12.1289 12.6641 12.1562 12.7187 12.1562 12.832C12.1562 12.9453 12.1289 13 12.0469 13.0703L11.9414 13.1641H10.5H9.05859L8.95312 13.0703C8.87109 13 8.84375 12.9453 8.84375 12.832C8.84375 12.7187 8.87109 12.6641 8.95312 12.5937L9.05859 12.5H10.5H11.9414L12.0469 12.5937Z" fill="#5856D6"/>
<path d="M3.18359 10.707C2.82031 10.793 2.46875 11.0781 2.29688 11.4258L2.19922 11.6211V15.332V19.043L2.28906 19.2227C2.43359 19.5156 2.62891 19.7109 2.91406 19.8516L3.17188 19.9805L4.27734 19.9922L5.38281 20.0039L5.48047 19.9062L5.57812 19.8086V15.3437C5.57422 10.6172 5.58203 10.8086 5.39453 10.7109C5.29297 10.6562 3.41406 10.6523 3.18359 10.707ZM4.34766 13.7695C4.44531 13.8633 4.44531 13.8633 4.44531 14.707C4.44531 15.5508 4.44531 15.5508 4.34766 15.6445C4.20703 15.7891 4.01172 15.7773 3.88281 15.6211L3.78125 15.5V14.6992V13.8984L3.89453 13.7852C4.04297 13.6406 4.21484 13.6328 4.34766 13.7695Z" fill="#5856D6"/>
<path d="M15.5977 10.7109C15.418 10.8164 15.4258 10.6406 15.4219 15.3437V19.8086L15.5195 19.9062L15.6172 20.0039L16.7227 19.9922L17.8281 19.9805L18.0859 19.8516C18.3711 19.7109 18.5664 19.5156 18.7109 19.2227L18.8008 19.043V15.332V11.6211L18.668 11.375C18.5195 11.1016 18.3086 10.9062 18.0156 10.7734C17.832 10.6875 17.7734 10.6836 16.75 10.6719C15.9766 10.668 15.6523 10.6758 15.5977 10.7109ZM17.0898 13.7656L17.1992 13.8594L17.2109 14.6797L17.2227 15.4961L17.1211 15.6211C16.9883 15.7773 16.793 15.7891 16.6523 15.6445C16.5547 15.5508 16.5547 15.5508 16.5547 14.707C16.5547 13.8633 16.5547 13.8633 16.6523 13.7695C16.7734 13.6445 16.9453 13.6445 17.0898 13.7656Z" fill="#5856D6"/>
<path d="M9.44141 16.3242L9.32812 16.4375V18.1055V19.7734L9.44141 19.8867L9.55469 20H10.5H11.4453L11.5586 19.8867L11.6719 19.7734V18.1055V16.4375L11.5586 16.3242L11.4453 16.2109H10.5H9.55469L9.44141 16.3242Z" fill="#5856D6"/>
</g>
<defs>
<clipPath id="clip0_1969_7886">
<rect width="20" height="20" fill="white" transform="translate(0.5)"/>
</clipPath>
</defs>
</svg>
