<svg width="25" height="24" viewBox="0 0 25 24" fill="none" xmlns="http://www.w3.org/2000/svg">
<path d="M4.26172 5.99972C4.26172 5.52633 4.64548 5.14258 5.11886 5.14258H21.4046C21.878 5.14258 22.2617 5.52633 22.2617 5.99972C22.2617 6.47311 21.878 6.85686 21.4046 6.85686H5.11886C4.64548 6.85686 4.26172 6.47311 4.26172 5.99972Z" fill="#878B97"/>
<path d="M4.26172 11.9998C4.26172 11.5264 4.64548 11.1426 5.11886 11.1426L14.5474 11.1428C15.0208 11.1428 15.4046 11.5266 15.4046 12C15.4046 12.4734 15.0208 12.8571 14.5474 12.8571L5.11886 12.8569C4.64548 12.8569 4.26172 12.4731 4.26172 11.9998Z" fill="#878B97"/>
<path d="M5.11886 17.1426C4.64548 17.1426 4.26172 17.5263 4.26172 17.9997C4.26172 18.473 4.64548 18.8568 5.11886 18.8568H19.6903C20.1637 18.8568 20.5474 18.473 20.5474 17.9997C20.5474 17.5263 20.1637 17.1426 19.6903 17.1426H5.11886Z" fill="#878B97"/>
</svg>
