<svg width="21" height="20" viewBox="0 0 21 20" fill="none" xmlns="http://www.w3.org/2000/svg">
<path d="M17.0382 1.73337C16.4198 1.86681 15.8144 2.12717 15.2644 2.49494C15.0138 2.66092 14.402 3.25976 11.1799 6.47852L7.38513 10.2636L5.66347 9.78841C4.02643 9.33603 3.93855 9.31324 3.81162 9.3523C3.70422 9.38484 3.5415 9.52479 2.96544 10.0943C2.57489 10.4849 2.23642 10.8461 2.21038 10.9047C2.12251 11.1065 2.16807 11.305 2.33405 11.4547C2.37311 11.4938 3.34622 12.0406 4.49183 12.672C5.63743 13.3033 6.59753 13.8436 6.62682 13.8729C6.65611 13.9022 7.19637 14.8623 7.82775 16.0079C8.45588 17.1535 9.0059 18.1266 9.0417 18.1657C9.19792 18.3349 9.40296 18.3772 9.59823 18.2861C9.65681 18.2568 10.0181 17.9183 10.4054 17.5278C10.9749 16.955 11.1149 16.7955 11.1474 16.6881C11.1832 16.5644 11.1637 16.4733 10.7113 14.8362L10.2329 13.1146L14.0212 9.32301C18.1024 5.23528 18.0015 5.34268 18.3497 4.64946C18.6166 4.11571 18.8282 3.37693 18.8282 2.98312C18.8249 2.26061 18.2196 1.66503 17.4938 1.67479C17.3962 1.67479 17.1911 1.70408 17.0382 1.73337Z" fill="#FFCC00"/>
<path d="M5.67881 2.66762C5.61047 2.69691 5.2427 3.03864 4.76428 3.52032C4.09059 4.19401 3.9539 4.34697 3.9181 4.46088C3.86928 4.63663 3.91484 4.80912 4.04177 4.9328C4.09384 4.98161 5.18737 5.57069 6.47618 6.24113L8.81946 7.46484L10.3816 5.90265C11.2376 5.0467 11.9341 4.33396 11.9211 4.32419C11.882 4.28514 5.96521 2.61555 5.87083 2.61555C5.82852 2.6188 5.74065 2.64158 5.67881 2.66762Z" fill="#FFCC00"/>
<path d="M14.5881 10.1262L13.0356 11.6787L14.2561 14.022C14.9298 15.3108 15.5189 16.4043 15.5644 16.4531C15.6133 16.5052 15.7076 16.5638 15.776 16.5833C16.0201 16.6549 16.0689 16.6224 16.9964 15.6916C17.7385 14.9463 17.8491 14.8193 17.8719 14.7119C17.8882 14.6045 17.7645 14.1326 17.0713 11.6852C16.6189 10.0872 16.2349 8.73329 16.2186 8.67471C16.2023 8.61938 16.1795 8.57057 16.1665 8.57057C16.1535 8.57057 15.444 9.2703 14.5881 10.1262Z" fill="#FFCC00"/>
</svg>
