<svg width="25" height="25" viewBox="0 0 25 25" fill="none" xmlns="http://www.w3.org/2000/svg">
<circle cx="12.5" cy="12.5" r="11.5" fill="white" stroke="#5856D6"/>
<path fill-rule="evenodd" clip-rule="evenodd" d="M13.7252 7.05876C13.8424 6.94172 14.0012 6.87598 14.1668 6.87598C14.3325 6.87598 14.4913 6.94172 14.6085 7.05876L19.6085 12.0588C19.7255 12.1759 19.7913 12.3348 19.7913 12.5004C19.7913 12.6661 19.7255 12.8249 19.6085 12.9421L14.6085 17.9421C14.5513 18.0035 14.4823 18.0528 14.4056 18.0869C14.3289 18.1211 14.2462 18.1394 14.1623 18.1409C14.0783 18.1424 13.995 18.127 13.9172 18.0955C13.8393 18.0641 13.7686 18.0173 13.7093 17.958C13.65 17.8986 13.6032 17.8279 13.5717 17.7501C13.5403 17.6723 13.5249 17.5889 13.5263 17.505C13.5278 17.4211 13.5462 17.3383 13.5803 17.2616C13.6145 17.185 13.6638 17.116 13.7252 17.0588L17.6585 13.1254H5.8335C5.66774 13.1254 5.50876 13.0596 5.39155 12.9424C5.27434 12.8252 5.2085 12.6662 5.2085 12.5004C5.2085 12.3347 5.27434 12.1757 5.39155 12.0585C5.50876 11.9413 5.66774 11.8754 5.8335 11.8754H17.6585L13.7252 7.94209C13.6081 7.82491 13.5424 7.66605 13.5424 7.50043C13.5424 7.3348 13.6081 7.17595 13.7252 7.05876Z" fill="#5856D6"/>
</svg>
