<svg width="25" height="25" viewBox="0 0 25 25" fill="none" xmlns="http://www.w3.org/2000/svg">
<circle cx="12.5" cy="12.5" r="11.5" fill="white" stroke="#5856D6"/>
<path d="M5.96619 8.85719C5.91525 9.35956 6.3282 9.71191 6.74652 9.71192L18.4132 9.71192C18.7584 9.71192 19.0382 9.43209 19.0382 9.08692C19.0382 8.74174 18.7584 8.46192 18.4132 8.46192L7.46606 8.46191C7.4753 8.45007 7.48486 8.43798 7.49476 8.42565C7.71068 8.1568 8.03181 7.83719 8.51089 7.36236L9.6862 6.19749C9.93137 5.9545 9.93313 5.55878 9.69015 5.31362C9.44716 5.06845 9.05144 5.06668 8.80627 5.30967L7.60533 6.49995C7.15851 6.94277 6.78585 7.3121 6.52015 7.64295C6.24146 7.98997 6.02948 8.35467 5.97285 8.799C5.97038 8.81837 5.96816 8.83777 5.96619 8.85719Z" fill="#5856D6"/>
<path d="M6.74653 15.1286C6.40135 15.1286 6.12153 15.4084 6.12153 15.7536C6.12153 16.0988 6.40135 16.3786 6.74653 16.3786L17.5268 16.3786C17.5175 16.3904 17.508 16.4025 17.4981 16.4148C17.2822 16.6837 16.961 17.0033 16.482 17.4781L15.3066 18.643C15.0615 18.886 15.0597 19.2817 15.3027 19.5269C15.5457 19.772 15.9414 19.7738 16.1866 19.5308L17.3875 18.3406C17.8343 17.8977 18.207 17.5284 18.4727 17.1975C18.7514 16.8505 18.9634 16.4858 19.02 16.0415C19.0891 15.4993 18.6395 15.1286 18.2037 15.1286L6.74653 15.1286Z" fill="#5856D6"/>
</svg>
